{"accessors":[{"name":"lczd_1_0_positions","componentType":5126,"count":537,"min":[-0.11819999665021896,0,-0.03460000082850456],"max":[0.11819999665021896,0.4564000070095062,0.03500000014901161],"type":"VEC3","bufferView":0,"byteOffset":0},{"name":"lczd_1_0_normals","componentType":5126,"count":537,"min":[-1,-1,-1],"max":[1,1,1],"type":"VEC3","bufferView":1,"byteOffset":0},{"name":"lczd_1_0_texcoords","componentType":5126,"count":537,"min":[-0.7282999753952026,-1.1634999513626099],"max":[1.2164000272750854,2.1635000705718994],"type":"VEC2","bufferView":2,"byteOffset":0},{"name":"lczd_1_0_indices","componentType":5123,"count":1368,"min":[0],"max":[536],"type":"SCALAR","bufferView":3,"byteOffset":0},{"name":"lczd_1_1_positions","componentType":5126,"count":1016,"min":[-0.11819999665021896,0.2320999950170517,-0.03579999879002571],"max":[0.11819999665021896,0.44369998574256897,0.03500000014901161],"type":"VEC3","bufferView":0,"byteOffset":6444},{"name":"lczd_1_1_normals","componentType":5126,"count":1016,"min":[-1,-1,-1],"max":[1,1,1],"type":"VEC3","bufferView":1,"byteOffset":6444},{"name":"lczd_1_1_texcoords","componentType":5126,"count":1016,"min":[0,0],"max":[1,1],"type":"VEC2","bufferView":2,"byteOffset":4296},{"name":"lczd_1_1_indices","componentType":5123,"count":2520,"min":[0],"max":[1015],"type":"SCALAR","bufferView":3,"byteOffset":2736},{"name":"lczd_1_2_positions","componentType":5126,"count":132,"min":[-0.008899999782443047,0.2092999964952469,-0.03460000082850456],"max":[0.008799999952316284,0.4165000021457672,-0.00019999999494757503],"type":"VEC3","bufferView":0,"byteOffset":18636},{"name":"lczd_1_2_normals","componentType":5126,"count":132,"min":[-0.978823721408844,-1,-0.978823721408844],"max":[1,0,0.978823721408844],"type":"VEC3","bufferView":1,"byteOffset":18636},{"name":"lczd_1_2_texcoords","componentType":5126,"count":132,"min":[0,0],"max":[1,1],"type":"VEC2","bufferView":2,"byteOffset":12424},{"name":"lczd_1_2_indices","componentType":5123,"count":336,"min":[0],"max":[131],"type":"SCALAR","bufferView":3,"byteOffset":7776},{"name":"lczd_1_3_positions","componentType":5126,"count":252,"min":[-0.10809999704360962,0.24580000340938568,-0.03519999980926514],"max":[0.10809999704360962,0.4124000072479248,-0.029500000178813934],"type":"VEC3","bufferView":0,"byteOffset":20220},{"name":"lczd_1_3_normals","componentType":5126,"count":252,"min":[0,0,-1],"max":[0,0,-1],"type":"VEC3","bufferView":1,"byteOffset":20220},{"name":"lczd_1_3_texcoords","componentType":5126,"count":252,"min":[0.007600000128149986,0],"max":[0.9923999905586243,1],"type":"VEC2","bufferView":2,"byteOffset":13480},{"name":"lczd_1_3_indices","componentType":5123,"count":672,"min":[0],"max":[251],"type":"SCALAR","bufferView":3,"byteOffset":8448},{"name":"lczd_1_4_positions","componentType":5126,"count":888,"min":[-0.10939999669790268,0.24449999630451202,-0.03579999879002571],"max":[0.10939999669790268,0.41370001435279846,-0.023600000888109207],"type":"VEC3","bufferView":0,"byteOffset":23244},{"name":"lczd_1_4_normals","componentType":5126,"count":888,"min":[-1,-0.984815776348114,-1],"max":[1,0.984815776348114,0],"type":"VEC3","bufferView":1,"byteOffset":23244},{"name":"lczd_1_4_texcoords","componentType":5126,"count":888,"min":[0.007600000128149986,0],"max":[1.0277999639511108,1],"type":"VEC2","bufferView":2,"byteOffset":15496},{"name":"lczd_1_4_indices","componentType":5123,"count":2592,"min":[0],"max":[887],"type":"SCALAR","bufferView":3,"byteOffset":9792},{"name":"lczd_1_5_positions","componentType":5126,"count":4,"min":[-0.053700000047683716,0.3043000102043152,0.03579999879002571],"max":[0.053199999034404755,0.35499998927116394,0.03579999879002571],"type":"VEC3","bufferView":0,"byteOffset":33900},{"name":"lczd_1_5_normals","componentType":5126,"count":4,"min":[0,0,1],"max":[0,0,1],"type":"VEC3","bufferView":1,"byteOffset":33900},{"name":"lczd_1_5_texcoords","componentType":5126,"count":4,"min":[0,0],"max":[1,1],"type":"VEC2","bufferView":2,"byteOffset":22600},{"name":"lczd_1_5_indices","componentType":5123,"count":6,"min":[0],"max":[3],"type":"SCALAR","bufferView":3,"byteOffset":14976}],"asset":{"generator":"obj2gltf","version":"2.0"},"buffers":[{"name":"lucezhongduan","byteLength":511952,"uri":"data:application/octet-stream;base64,"}],"bufferViews":[{"name":"bufferView_0","buffer":0,"byteLength":33948,"byteOffset":0,"byteStride":12,"target":34962},{"name":"bufferView_1","buffer":0,"byteLength":33948,"byteOffset":33948,"byteStride":12,"target":34962},{"name":"bufferView_2","buffer":0,"byteLength":22632,"byteOffset":67896,"byteStride":8,"target":34962},{"name":"bufferView_3","buffer":0,"byteLength":14988,"byteOffset":90528,"target":34963},{"buffer":0,"byteOffset":105516,"byteLength":25819},{"buffer":0,"byteOffset":131335,"byteLength":247170},{"buffer":0,"byteOffset":378505,"byteLength":26354},{"buffer":0,"byteOffset":404859,"byteLength":23051},{"buffer":0,"byteOffset":427910,"byteLength":26480},{"buffer":0,"byteOffset":454390,"byteLength":57560}],"images":[{"name":"XingYun_MonitoringPlatform_gb_021","mimeType":"image/jpeg","bufferView":4},{"name":"XingYun_MonitoringPlatform_gb_003","mimeType":"image/jpeg","bufferView":5},{"name":"XingYun_MonitoringPlatform_gb_010","mimeType":"image/jpeg","bufferView":6},{"name":"XingYun_MonitoringPlatform_gb_004","mimeType":"image/jpeg","bufferView":7},{"name":"XingYun_MonitoringPlatform_gb_020","mimeType":"image/jpeg","bufferView":8},{"name":"fs_rsu_001","mimeType":"image/png","bufferView":9}],"materials":[{"name":"lczd1","pbrMetallicRoughness":{"baseColorTexture":{"index":0},"baseColorFactor":[1,1,1,1],"metallicFactor":0,"roughnessFactor":0.99},"emissiveFactor":[0,0,0],"alphaMode":"OPAQUE","doubleSided":false},{"name":"lczd2","pbrMetallicRoughness":{"baseColorTexture":{"index":1},"baseColorFactor":[1,1,1,1],"metallicFactor":0,"roughnessFactor":0.99},"emissiveFactor":[0,0,0],"alphaMode":"OPAQUE","doubleSided":false},{"name":"lczd3","pbrMetallicRoughness":{"baseColorTexture":{"index":2},"baseColorFactor":[1,1,1,1],"metallicFactor":0,"roughnessFactor":0.971},"emissiveFactor":[0,0,0],"alphaMode":"OPAQUE","doubleSided":false},{"name":"lczd5","pbrMetallicRoughness":{"baseColorTexture":{"index":3},"baseColorFactor":[1,1,1,1],"metallicFactor":0,"roughnessFactor":0.99},"emissiveFactor":[0,0,0],"alphaMode":"OPAQUE","doubleSided":false},{"name":"lczd4","pbrMetallicRoughness":{"baseColorTexture":{"index":4},"baseColorFactor":[1,1,1,1],"metallicFactor":0,"roughnessFactor":0.99},"emissiveFactor":[0,0,0],"alphaMode":"OPAQUE","doubleSided":false},{"name":"lczd6","pbrMetallicRoughness":{"baseColorTexture":{"index":5},"baseColorFactor":[1,1,1,1],"metallicFactor":0,"roughnessFactor":0.99},"emissiveFactor":[0,0,0],"alphaMode":"BLEND","doubleSided":true}],"meshes":[{"name":"lczd_1","primitives":[{"attributes":{"POSITION":0,"NORMAL":1,"TEXCOORD_0":2},"indices":3,"material":0,"mode":4},{"attributes":{"POSITION":4,"NORMAL":5,"TEXCOORD_0":6},"indices":7,"material":1,"mode":4},{"attributes":{"POSITION":8,"NORMAL":9,"TEXCOORD_0":10},"indices":11,"material":2,"mode":4},{"attributes":{"POSITION":12,"NORMAL":13,"TEXCOORD_0":14},"indices":15,"material":3,"mode":4},{"attributes":{"POSITION":16,"NORMAL":17,"TEXCOORD_0":18},"indices":19,"material":4,"mode":4},{"attributes":{"POSITION":20,"NORMAL":21,"TEXCOORD_0":22},"indices":23,"material":5,"mode":4}]}],"nodes":[{"name":"lczd","mesh":0}],"samplers":[{"magFilter":9729,"minFilter":9986,"wrapS":10497,"wrapT":10497}],"scene":0,"scenes":[{"nodes":[0]}],"textures":[{"name":"XingYun_MonitoringPlatform_gb_021","sampler":0,"source":0},{"name":"XingYun_MonitoringPlatform_gb_003","sampler":0,"source":1},{"name":"XingYun_MonitoringPlatform_gb_010","sampler":0,"source":2},{"name":"XingYun_MonitoringPlatform_gb_004","sampler":0,"source":3},{"name":"XingYun_MonitoringPlatform_gb_020","sampler":0,"source":4},{"name":"fs_rsu_001","sampler":0,"source":5}]}